# xmcd
#
# Track frame offsets:
#	150
#	15825
#	38625
#	53484
#	72162
#	89267
#	109068
#	126281
#	142896
#	158652
#	172215
#
# Disc length: 2569 seconds
#
# Revision: 1
# Processed by: cddbd v1.5.2PL0 Copyright (c) Steve Scherf et al.
# Submitted via: audiograbber 1.83.01
#
DISCID=830a070b
DTITLE=Amberian Dawn - Re-Evolution
DYEAR=2013
DGENRE=Symphonic Metal
TTITLE0=Valkyries
TTITLE1=Incubus
TTITLE2=Kokko - Eagle Of Fire
TTITLE3=Lily Of The Moon
TTITLE4=Come Now Follow
TTITLE5=Crimson Flower
TTITLE6=Circus Black
TTITLE7=Lost Soul
TTITLE8=Cold Kiss
TTITLE9=River Of Tuoni
TTITLE10=Charnel's Ball
EXTD=
EXTT0=
EXTT1=
EXTT2=
EXTT3=
EXTT4=
EXTT5=
EXTT6=
EXTT7=
EXTT8=
EXTT9=
EXTT10=
PLAYORDER=
